<svg width="20" height="20" viewBox="0 0 20 20" fill="none" xmlns="http://www.w3.org/2000/svg">
<path d="M4.52194 5.81153L5.64061 6.9302C5.70413 6.99373 5.79252 7.02687 5.88367 7.02135L12.3913 6.56007L4.61447 14.3369C4.55371 14.3976 4.55371 14.4971 4.61447 14.5578L5.44311 15.3865C5.50388 15.4472 5.60332 15.4472 5.66408 15.3865L13.4409 7.60968L12.9796 14.1173C12.9727 14.207 13.0058 14.2954 13.0708 14.3603L14.1894 15.479C14.2833 15.5729 14.4463 15.5122 14.4546 15.3796L15.1534 5.51322C15.1598 5.42398 15.1469 5.33442 15.1156 5.25061C15.0843 5.16679 15.0354 5.09067 14.9722 5.02741C14.9089 4.96415 14.8328 4.91523 14.749 4.88396C14.6651 4.85269 14.5756 4.8398 14.4863 4.84616L4.62138 5.54637C4.48741 5.55603 4.42803 5.71762 4.52194 5.81153Z" fill="#969EA3"/>
</svg>
