<svg width="119" height="66" viewBox="0 0 119 66" fill="none" xmlns="http://www.w3.org/2000/svg">
<path d="M39.04 20.638C38.0491 20.3077 37.1683 21.2986 36.7279 22.1794C33.2047 27.9047 29.3511 33.63 25.1672 38.9149C20.8732 44.1998 16.4692 49.1544 9.97314 51.7968C9.09232 52.1272 8.76201 52.2373 7.8812 52.2373C6.11957 52.2373 5.23875 51.1362 4.46804 49.7049C2.1559 45.8513 3.36702 40.7867 4.46804 36.3826C7.11048 25.8128 12.8358 16.2339 20.1025 8.19647C22.0843 6.10454 24.1763 4.0126 26.7086 2.69138C28.3602 1.81056 30.6723 1.37015 31.8834 2.80148C32.4339 3.46209 32.6541 4.34291 32.7642 5.22372C33.4248 10.0682 32.1036 15.0228 29.3511 18.9865C29.1309 19.3168 28.9107 19.537 28.9107 19.9774C28.9107 20.7481 29.7915 21.2986 30.5622 21.0784C31.3329 20.8582 31.7733 20.1976 32.2137 19.537C33.9754 16.8945 35.0764 13.9218 35.5168 10.8389C35.8471 8.52678 35.737 6.21464 34.8562 4.1227C33.9754 2.03076 31.9935 0.269133 29.6814 0.0489286C28.14 -0.171275 26.4884 0.379235 25.0571 1.14995C21.2035 3.13178 18.1207 6.32474 15.4782 9.6278C12.7257 13.041 10.1933 16.6743 7.9913 20.5279C5.78926 24.3815 3.91752 28.5653 2.5963 32.7492C1.60538 35.9422 0.944774 39.1351 0.72457 42.4382C0.504366 44.8604 0.614465 47.2827 1.49528 49.4847C2.3761 51.6867 4.24783 53.5585 6.67008 53.9989C8.65191 54.3292 10.7438 53.5585 12.5055 52.6777C23.4056 47.1726 30.7824 36.4927 37.2784 26.1431C36.838 39.4654 36.7279 52.7878 36.9481 66C37.8289 66 38.5996 66 39.4805 66C39.7007 51.6867 39.8108 37.2634 40.031 22.9501C40.031 22.3996 40.031 21.8491 39.8108 21.4087C39.7007 21.0784 39.4805 20.7481 39.04 20.638Z" fill="#0A8270"/>
<path d="M118.533 34.2907C118.313 34.1806 117.982 34.0705 117.762 34.0705C117.212 34.0705 116.661 34.4008 116.331 34.8412C115.78 35.5018 115.56 36.2725 115.23 37.0432C114.569 38.6947 113.689 40.2362 112.588 41.5574C112.147 42.1079 111.486 42.7685 110.716 42.7685C109.615 42.7685 108.954 41.5574 108.514 40.4564C107.193 36.4927 107.413 32.1987 107.633 27.9048C107.853 22.5098 108.073 17.1148 108.294 11.7198C108.294 11.2794 108.294 10.7288 108.183 10.2884C107.853 9.62783 107.082 9.18742 106.312 9.40762C105.871 9.51773 105.761 9.73793 105.761 10.1783C105.761 10.7288 105.651 11.3895 105.651 11.94C105.541 14.2521 105.431 16.6744 105.321 18.9865C105.101 23.9411 104.88 29.0058 104.99 33.9604C104.99 33.9604 104.99 33.9604 104.99 34.0705C104.99 34.9513 104.88 35.722 104.77 36.3826C104.22 38.3644 103.009 40.1261 101.798 41.7776C101.357 42.4382 100.586 43.0988 99.8157 42.8786C99.2652 42.6584 98.9349 42.1079 98.7147 41.5574C97.6136 38.4745 98.054 35.1715 98.054 31.8684C98.054 31.428 98.0541 30.8775 97.8338 30.4371C97.6136 30.1068 97.1732 29.7765 96.8429 29.5563C95.5217 28.7856 93.8702 28.4553 92.3288 28.6755C91.1176 28.8957 89.9065 29.4462 89.1358 30.5472C88.255 31.6482 87.5944 32.8593 87.0439 34.1806C86.163 36.3826 85.7226 38.8048 85.9428 41.2271C86.0529 42.4382 86.4933 43.6493 87.4843 44.42C88.4752 45.1908 89.9065 45.0807 91.0075 44.42C92.1085 43.7594 92.8793 42.7685 93.5399 41.6675C94.2005 40.5665 94.6409 39.4655 95.3015 38.3644C95.6318 39.3554 95.7419 40.2362 96.0722 41.2271C96.4025 42.218 96.7328 43.0988 97.5035 43.7594C98.8248 44.8604 100.807 44.7504 102.238 43.9796C103.669 43.2089 104.77 41.7776 105.541 40.2362C105.651 40.5665 105.761 41.0069 105.871 41.3372C106.532 43.2089 108.073 44.9706 110.606 44.7503C112.147 44.6402 113.468 43.7594 114.459 42.6584C115.45 41.5574 116.221 40.1261 116.881 38.8048C117.432 37.5937 118.093 36.3826 118.643 35.1715C118.753 35.0614 118.753 34.9513 118.753 34.7311C118.973 34.621 118.753 34.4008 118.533 34.2907ZM94.751 33.4098C94.6409 33.7402 94.6409 33.9604 94.5308 34.2907C94.4207 34.7311 94.2005 35.0614 93.9803 35.5018C92.8793 37.924 91.8883 40.4564 90.3469 42.6584C90.2368 42.8786 90.0166 43.0988 89.7964 43.319C89.356 43.5392 88.8055 43.4291 88.4752 43.2089C88.1449 42.8786 87.9247 42.4382 87.8146 41.9978C87.7045 41.5574 87.8146 41.117 87.8146 40.5665C88.0348 38.8048 88.4752 37.0432 89.1358 35.5018C89.7964 33.9604 90.6772 32.1987 91.8883 31.0977C92.3287 30.7674 92.8793 30.4371 93.4298 30.6573C93.8702 30.7674 94.0904 31.0977 94.3106 31.428C94.8611 31.8684 94.8611 32.7492 94.751 33.4098Z" fill="#0A8270"/>
<path d="M78.8972 28.3452C77.576 28.3452 76.3649 29.0058 75.4841 30.327C75.0437 30.8775 74.7134 31.2078 74.6032 31.2078C74.4931 29.9967 74.4931 27.134 74.4931 22.3996C74.4931 18.8764 74.4931 15.3531 74.6032 11.7198C74.6032 11.2793 74.6033 10.7288 74.383 10.2884C74.0527 9.62782 73.1719 9.29751 72.5113 9.40761C72.0709 9.51772 71.9608 9.73792 71.9608 10.1783C71.9608 10.7288 71.9608 11.3894 71.9608 11.94C71.9608 14.2521 71.9608 17.1147 71.8507 19.4269V19.537C71.8507 19.537 71.8507 19.537 71.8507 19.6471C71.8507 24.2714 71.8507 29.0058 71.9608 33.8502C71.9608 33.9603 71.9608 34.0705 71.9608 34.1806C71.6305 36.1624 68.878 37.5937 67.0062 38.2543C67.1163 36.7129 67.1163 35.1715 66.8961 33.63C66.5658 32.0886 65.9052 30.5472 64.6941 29.5563C63.5931 28.6755 62.0516 28.235 60.6203 28.4553C59.9597 28.5654 59.189 28.7856 58.6385 29.226C58.088 29.6664 57.6476 30.4371 57.3172 31.0977C56.7667 32.1987 56.3263 33.2997 56.1061 34.5109C55.6657 35.2816 55.2253 36.2725 55.0051 36.823C54.2344 38.3644 53.4637 40.016 52.3627 41.3372C51.9223 41.8877 51.2616 42.5483 50.4909 42.5483C49.3899 42.5483 48.7293 41.3372 48.2889 40.2362C46.9677 36.2725 47.1879 31.9785 47.4081 27.6845C47.6283 22.2895 47.8485 16.8945 48.0687 11.4996C48.0687 11.0591 48.0687 10.5086 47.9586 10.0682C47.6283 9.40761 46.8576 8.9672 46.0869 9.18741C45.6464 9.29751 45.5363 9.51772 45.5363 9.95812C45.5363 10.5086 45.4262 11.1692 45.4262 11.7198C45.3161 14.0319 45.206 16.4541 45.0959 18.7663C44.8757 24.2714 44.6555 29.6664 44.7656 35.1715C44.8757 37.1533 44.9858 39.2452 45.6464 41.117C46.307 42.9887 47.8485 44.7503 50.3808 44.5301C51.9222 44.42 53.2435 43.5392 54.2344 42.4382C55.0051 41.6675 55.5556 40.6766 56.1061 39.6857C56.3263 40.7867 56.7667 41.7776 57.4273 42.6584C58.0879 43.5392 59.0789 44.42 60.1799 44.6402C61.0607 44.8604 62.1617 44.6402 63.0425 44.1998C64.4739 43.5392 65.5749 42.218 66.1254 40.7867C66.2355 40.4564 66.3456 40.3463 66.5658 40.1261C66.8961 39.9059 67.2264 39.9059 67.6668 39.7958C69.3184 39.4654 70.8598 38.5846 72.181 37.3735C72.181 38.9149 72.2911 40.2362 72.2911 41.0069C72.4012 41.9978 72.4012 42.6584 72.4012 43.0988C72.4012 43.4291 72.5113 43.6493 72.6214 43.6493C72.8416 43.7594 73.0618 43.8695 73.3921 43.8695C73.9426 43.8695 74.383 43.7594 74.8234 43.4291C74.9336 43.319 75.0437 43.319 75.2639 43.319C75.374 43.319 75.4841 43.319 75.5942 43.4291C75.8144 43.6493 76.2548 43.7594 76.8053 43.9796C77.2457 44.0897 77.7962 44.1998 78.2366 44.1998C79.6679 44.1998 81.0993 43.7594 82.3104 42.6584C83.5215 41.4473 84.072 39.3553 84.072 36.4927C84.072 35.6119 83.9619 34.621 83.8518 33.63C83.1912 30.2169 81.6498 28.3452 78.8972 28.3452ZM63.4829 40.3463V40.4564C63.2627 41.4473 62.7122 42.3281 61.8314 42.8786C61.6112 42.9887 61.5011 43.0988 61.2809 43.2089C61.0607 43.2089 60.7304 43.0988 60.5102 42.9887C59.7395 42.5483 59.189 41.7776 58.8587 40.8968C58.5284 40.016 58.4183 39.1351 58.4183 38.2543C58.4183 38.0341 58.4183 37.7038 58.6385 37.8139C58.7486 37.8139 58.7486 37.924 58.8587 37.924C59.6294 38.5846 60.6203 39.1351 61.6112 39.4654C62.1617 39.6857 62.7122 39.9059 63.2627 40.016C63.3728 40.016 63.3728 40.016 63.4829 40.1261C63.593 40.1261 63.593 40.2362 63.4829 40.3463ZM64.2537 38.0341V38.1442C64.2537 38.2543 64.1436 38.4745 64.0335 38.5846C63.9234 38.6947 63.7032 38.6947 63.5931 38.6947C63.2627 38.6947 63.0425 38.5846 62.7122 38.3644C61.6112 37.8139 60.6203 36.9331 60.0698 35.8321C59.6294 34.9513 59.5193 33.8502 59.6294 32.9694C59.7395 32.3088 60.0698 31.7583 60.4001 31.2078C60.7304 30.7674 61.2809 29.9967 61.8314 29.9967C62.0516 29.9967 62.3819 30.1068 62.6021 30.327C63.1527 30.7674 63.483 31.428 63.7032 32.1987C63.9234 32.8593 64.0335 33.63 64.0335 34.4008C64.2537 35.5018 64.3638 36.823 64.2537 38.0341ZM81.0993 36.823C81.0993 37.0432 81.0993 37.2634 81.0993 37.4836C80.9892 39.025 80.9892 40.6766 79.9982 41.9978C79.5578 42.5483 78.8972 42.8786 78.1265 42.7685C77.7962 42.6584 77.3558 42.6584 77.1356 42.5483C76.475 42.1079 75.9245 41.6675 75.7043 41.0069C75.5942 40.4564 75.4841 39.9059 75.4841 39.3553C75.4841 37.5937 75.7043 35.8321 76.3649 34.1806C76.9154 32.8593 77.6861 31.5381 78.8972 30.6573C79.0073 30.5472 79.2275 30.4371 79.4477 30.327C79.778 30.327 79.9983 30.4371 80.2185 30.6573C80.4387 30.8775 80.5488 31.0977 80.6589 31.428C81.0993 33.0795 81.0993 34.9513 81.0993 36.823Z" fill="#0A8270"/>
<path d="M48.9499 55.5403H53.7944V56.0908H52.5833C52.3631 56.0908 52.253 56.0908 52.1429 56.2009C52.0328 56.311 52.0328 56.4211 52.0328 56.6413V64.8989C52.0328 65.1192 52.0328 65.2293 52.253 65.3394C52.3631 65.4495 52.5833 65.4495 52.9136 65.4495H54.3449C55.1157 65.4495 55.7763 65.2292 56.2167 64.6787C56.7672 64.1282 57.0975 63.2474 57.3177 61.9262H57.7581L57.5379 65.8899H48.8398V65.3394H49.7206C50.051 65.3394 50.2712 65.3394 50.3813 65.1191C50.4914 65.009 50.6015 64.7888 50.6015 64.5686V56.4211C50.6015 56.2009 50.6015 56.0908 50.4914 55.9807C50.3813 55.8706 50.2712 55.8706 50.051 55.8706H48.9499V55.5403Z" fill="#1A2227"/>
<path d="M68.5469 58.8435H73.3914V59.394H72.6206C72.2903 59.394 72.0701 59.394 71.96 59.5041C71.8499 59.6142 71.8499 59.8344 71.8499 60.0546V64.6789C71.8499 65.0092 71.8499 65.2294 71.96 65.2294C72.0701 65.3395 72.2903 65.3395 72.6206 65.3395H73.5015V65.89H68.5469V65.3395H69.4277C69.758 65.3395 69.9782 65.3395 70.0883 65.2294C70.1984 65.1193 70.1984 64.8991 70.1984 64.5688V59.9445C70.1984 59.6142 70.1984 59.5041 70.0883 59.394C69.9782 59.2839 69.758 59.2839 69.3176 59.2839H68.5469V58.8435Z" fill="#1A2227"/>
<path d="M84.623 55.5403H93.1009L93.211 59.1736H92.7706C92.5504 57.9625 92.2201 57.0817 91.8898 56.7514C91.4494 56.311 90.7888 56.0908 90.018 56.0908H88.3665C88.2564 56.0908 88.0362 56.0908 88.0362 56.2009C88.0362 56.311 87.9261 56.4211 87.9261 56.5312V60.2747H88.8069C89.3574 60.2747 89.6877 60.1646 90.018 59.8343C90.3483 59.504 90.4584 58.9534 90.4584 58.2928H91.0089V63.0272H90.4584C90.4584 62.2565 90.2382 61.706 90.018 61.3757C89.6877 61.0454 89.3574 60.8252 88.8069 60.8252H87.9261V64.7888C87.9261 65.0091 88.0362 65.2293 88.1463 65.3394C88.2564 65.4495 88.4766 65.4495 88.6968 65.4495H89.7978V66H84.7331V65.4495H85.8342C86.0544 65.4495 86.1645 65.4495 86.2746 65.3394C86.3847 65.2293 86.3847 65.1192 86.3847 64.8989V56.6413C86.3847 56.4211 86.3847 56.311 86.2746 56.2009C86.1645 56.0908 86.0544 56.0908 85.7241 56.0908H84.7331V55.5403H84.623Z" fill="#1A2227"/>
<path d="M104.441 55.5403H112.699L112.919 59.0635H112.479C112.259 57.9625 112.038 57.1918 111.598 56.7514C111.158 56.311 110.607 56.0908 110.057 56.0908H107.965C107.744 56.0908 107.634 56.0908 107.634 56.2009C107.524 56.311 107.524 56.4211 107.524 56.6413V60.3848H108.405C108.845 60.3848 109.286 60.1646 109.616 59.8343C109.946 59.504 110.057 58.9534 110.057 58.2928H110.497V63.1373H110.057C110.057 62.3666 109.836 61.8161 109.616 61.3757C109.286 61.0454 108.956 60.8252 108.405 60.8252H107.634V65.009C107.634 65.1192 107.634 65.2293 107.744 65.3394C107.855 65.4495 107.965 65.4495 108.295 65.4495H109.947C111.708 65.4495 112.699 64.3484 113.029 62.1464H113.58L113.36 66H104.772V65.4495H105.432C105.763 65.4495 105.873 65.4495 105.983 65.3394C106.093 65.2293 106.203 65.1192 106.203 64.8989V56.6413C106.203 56.4211 106.203 56.311 106.093 56.2009C105.983 56.0908 105.873 56.0908 105.653 56.0908H104.772V55.5403H104.441Z" fill="#1A2227"/>
<path d="M73.6111 52.3473L71.7393 52.2372L70.9686 50.4756L70.308 52.2372L68.3262 52.3473L69.8676 53.6685L69.3171 55.5403L70.9686 54.5494L72.6201 55.5403L72.1797 53.6685L73.6111 52.3473Z" fill="#1A2227"/>
</svg>
