<svg width="18" height="18" viewBox="0 0 18 18" fill="none" xmlns="http://www.w3.org/2000/svg">
<path d="M8.15635 9C8.15635 9.22378 8.24524 9.43839 8.40348 9.59662C8.56171 9.75486 8.77632 9.84375 9.0001 9.84375C9.22388 9.84375 9.43849 9.75486 9.59672 9.59662C9.75495 9.43839 9.84385 9.22378 9.84385 9C9.84385 8.77622 9.75495 8.56161 9.59672 8.40338C9.43849 8.24514 9.22388 8.15625 9.0001 8.15625C8.77632 8.15625 8.56171 8.24514 8.40348 8.40338C8.24524 8.56161 8.15635 8.77622 8.15635 9ZM11.672 9C11.672 9.22378 11.7609 9.43839 11.9191 9.59662C12.0773 9.75486 12.2919 9.84375 12.5157 9.84375C12.7395 9.84375 12.9541 9.75486 13.1123 9.59662C13.2706 9.43839 13.3595 9.22378 13.3595 9C13.3595 8.77622 13.2706 8.56161 13.1123 8.40338C12.9541 8.24514 12.7395 8.15625 12.5157 8.15625C12.2919 8.15625 12.0773 8.24514 11.9191 8.40338C11.7609 8.56161 11.672 8.77622 11.672 9ZM4.64072 9C4.64072 9.22378 4.72962 9.43839 4.88785 9.59662C5.04609 9.75486 5.2607 9.84375 5.48447 9.84375C5.70825 9.84375 5.92286 9.75486 6.0811 9.59662C6.23933 9.43839 6.32822 9.22378 6.32822 9C6.32822 8.77622 6.23933 8.56161 6.0811 8.40338C5.92286 8.24514 5.70825 8.15625 5.48447 8.15625C5.2607 8.15625 5.04609 8.24514 4.88785 8.40338C4.72962 8.56161 4.64072 8.77622 4.64072 9ZM16.2634 5.94844C15.8661 5.00449 15.2966 4.15723 14.5706 3.42949C13.8497 2.70597 12.9939 2.13086 12.0517 1.73672C11.0849 1.33066 10.0583 1.125 9.0001 1.125H8.96494C7.89971 1.13027 6.86787 1.34121 5.89756 1.75605C4.96338 2.15424 4.1156 2.73037 3.40147 3.45234C2.68252 4.17832 2.11826 5.02207 1.72803 5.9625C1.32373 6.93633 1.11983 7.97168 1.1251 9.03691C1.13106 10.2577 1.41987 11.4604 1.96885 12.5508V15.2227C1.96885 15.4371 2.05404 15.6428 2.20568 15.7944C2.35732 15.9461 2.56299 16.0312 2.77744 16.0312H5.45108C6.54144 16.5802 7.74419 16.869 8.96494 16.875H9.00186C10.0548 16.875 11.0761 16.6711 12.0376 16.2721C12.9751 15.8826 13.8277 15.3142 14.5478 14.5986C15.2737 13.8797 15.845 13.0395 16.244 12.1025C16.6589 11.1322 16.8698 10.1004 16.8751 9.03516C16.8804 7.96465 16.673 6.92578 16.2634 5.94844ZM13.6073 13.6477C12.3751 14.8676 10.7403 15.5391 9.0001 15.5391H8.97022C7.91026 15.5338 6.85733 15.2701 5.92744 14.7744L5.77979 14.6953H3.30479V12.2203L3.22569 12.0727C2.72998 11.1428 2.46631 10.0898 2.46104 9.02988C2.45401 7.27734 3.12373 5.63203 4.35244 4.39277C5.5794 3.15352 7.21944 2.46797 8.97197 2.46094H9.00186C9.88076 2.46094 10.7333 2.63145 11.5366 2.96895C12.3206 3.29766 13.0237 3.77051 13.6284 4.3752C14.2313 4.97812 14.706 5.68301 15.0347 6.46699C15.3757 7.2791 15.5462 8.14043 15.5427 9.02988C15.5321 10.7807 14.8448 12.4207 13.6073 13.6477Z" fill="#4D585F"/>
</svg>
