<svg width="48" height="48" viewBox="0 0 48 48" fill="none" xmlns="http://www.w3.org/2000/svg">
<circle cx="24" cy="24" r="23.5" stroke="#E3E8EB"/>
<g clip-path="url(#clip0_11512_12169)">
<path fill-rule="evenodd" clip-rule="evenodd" d="M24 35.2423C30.6274 35.2423 36 30.0393 36 23.6211C36 17.203 30.6274 12 24 12C17.3726 12 12 17.203 12 23.6211C12 27.1119 13.5892 30.2431 16.1053 32.3734V34.725C16.1053 35.6442 17.0415 36.2606 17.8762 35.8912L20.4858 34.736C21.5973 35.0652 22.7773 35.2423 24 35.2423Z" fill="#69747B"/>
<path d="M21.3317 20.9133L18.1005 26.0689C17.754 26.6217 18.3771 27.2858 18.8514 26.8693L21.6105 24.4469C21.8914 24.2003 22.285 24.197 22.5692 24.4388L25.023 26.5272C25.4936 26.9277 26.1662 26.8125 26.5088 26.2727L29.8976 20.9341C30.249 20.3804 29.6212 19.7109 29.1461 20.1328L26.2291 22.7236C25.9482 22.9731 25.5524 22.9777 25.267 22.7347L22.8211 20.6531C22.3486 20.2509 21.6729 20.369 21.3317 20.9133Z" fill="white"/>
</g>
<defs>
<clipPath id="clip0_11512_12169">
<rect width="24" height="24" fill="white" transform="translate(12 12)"/>
</clipPath>
</defs>
</svg>
