<svg width="15" height="13" viewBox="0 0 15 13" fill="none" xmlns="http://www.w3.org/2000/svg">
<path d="M4.71885 12.5937C10.3778 12.5937 13.4739 7.90416 13.4739 3.83863C13.4739 3.7068 13.471 3.57203 13.4651 3.4402C14.0674 3.00463 14.5872 2.46513 15 1.84703C14.4391 2.09659 13.8435 2.25958 13.2337 2.33043C13.8758 1.94554 14.3566 1.34089 14.5869 0.628574C13.9828 0.986568 13.3222 1.2391 12.6334 1.37535C12.1693 0.882195 11.5556 0.555667 10.8873 0.446251C10.219 0.336836 9.53324 0.450626 8.93609 0.77003C8.33893 1.08943 7.86363 1.59666 7.58365 2.21329C7.30368 2.82992 7.23464 3.5216 7.38721 4.18141C6.16406 4.12003 4.96746 3.80228 3.87499 3.24878C2.78252 2.69528 1.81856 1.91837 1.04561 0.968418C0.65275 1.64575 0.532535 2.44725 0.709394 3.21003C0.886253 3.97281 1.34691 4.63962 1.99775 5.07496C1.50914 5.05945 1.03123 4.9279 0.603516 4.69117V4.72926C0.603078 5.44006 0.848811 6.12909 1.29894 6.6792C1.74908 7.22932 2.37583 7.60657 3.07266 7.74684C2.62003 7.87068 2.14499 7.88872 1.68428 7.79957C1.88091 8.41087 2.26348 8.94553 2.77861 9.32893C3.29373 9.71233 3.9157 9.92534 4.55771 9.93824C3.46777 10.7944 2.12136 11.2588 0.735352 11.2566C0.489554 11.2562 0.243999 11.2412 0 11.2115C1.40804 12.1148 3.04596 12.5946 4.71885 12.5937Z" fill="#E3E8EB"/>
</svg>
