<svg width="48" height="48" viewBox="0 0 48 48" fill="none" xmlns="http://www.w3.org/2000/svg">
<circle cx="24" cy="24" r="23.5" stroke="#E3E8EB"/>
<g clip-path="url(#clip0_11512_12168)">
<path d="M19.5502 33.7497C28.6045 33.7497 33.5583 26.2465 33.5583 19.7416C33.5583 19.5307 33.5536 19.3151 33.5442 19.1041C34.5079 18.4072 35.3395 17.544 36 16.5551C35.1025 16.9544 34.1496 17.2151 33.1739 17.3285C34.2013 16.7127 34.9705 15.7452 35.3391 14.6055C34.3726 15.1783 33.3156 15.5824 32.2134 15.8004C31.4708 15.0113 30.489 14.4889 29.4197 14.3138C28.3504 14.1387 27.2532 14.3208 26.2977 14.8319C25.3423 15.3429 24.5818 16.1545 24.1338 17.1411C23.6859 18.1277 23.5754 19.2344 23.8195 20.2901C21.8625 20.1918 19.9479 19.6835 18.2 18.7979C16.452 17.9122 14.9097 16.6692 13.673 15.1493C13.0444 16.233 12.8521 17.5154 13.135 18.7358C13.418 19.9563 14.1551 21.0232 15.1964 21.7197C14.4146 21.6949 13.65 21.4844 12.9656 21.1057V21.1666C12.9649 22.3039 13.3581 23.4063 14.0783 24.2865C14.7985 25.1667 15.8013 25.7703 16.9162 25.9947C16.1921 26.1929 15.432 26.2218 14.6948 26.0791C15.0095 27.0572 15.6216 27.9126 16.4458 28.5261C17.27 29.1395 18.2651 29.4804 19.2923 29.501C17.5484 30.8709 15.3942 31.6139 13.1766 31.6104C12.7833 31.6098 12.3904 31.5857 12 31.5382C14.2529 32.9835 16.8735 33.7511 19.5502 33.7497Z" fill="#69747B"/>
</g>
<defs>
<clipPath id="clip0_11512_12168">
<rect width="24" height="24" fill="white" transform="translate(12 12)"/>
</clipPath>
</defs>
</svg>
