<svg width="39" height="39" viewBox="0 0 39 39" fill="none" xmlns="http://www.w3.org/2000/svg">
<circle cx="19.5" cy="19.5" r="19" fill="white" stroke="#E3E8EB"/>
<path d="M22.4999 21.8522C22.9364 21.6177 23.4362 21.4842 23.9684 21.4842H23.9702C24.0243 21.4842 24.0496 21.4192 24.0099 21.3831C23.4564 20.8864 22.8242 20.4853 22.139 20.1961C22.1318 20.1925 22.1246 20.1907 22.1174 20.187C23.2377 19.3734 23.9666 18.051 23.9666 16.5591C23.9666 14.0875 21.9677 12.085 19.5015 12.085C17.0353 12.085 15.0382 14.0875 15.0382 16.5591C15.0382 18.051 15.7671 19.3734 16.8892 20.187C16.882 20.1907 16.8748 20.1925 16.8675 20.1961C16.0611 20.537 15.3377 21.0259 14.7153 21.6501C14.0965 22.2678 13.6038 23.0001 13.2648 23.806C12.9313 24.5952 12.7513 25.4408 12.7344 26.2974C12.7339 26.3167 12.7373 26.3358 12.7444 26.3538C12.7514 26.3717 12.7619 26.388 12.7754 26.4018C12.7888 26.4156 12.8049 26.4266 12.8227 26.434C12.8404 26.4415 12.8595 26.4454 12.8787 26.4454H13.9594C14.037 26.4454 14.1019 26.3822 14.1037 26.3046C14.1398 24.9119 14.6972 23.6076 15.6841 22.6189C16.7034 21.596 18.06 21.0332 19.5033 21.0332C20.5262 21.0332 21.5076 21.3164 22.3537 21.8468C22.3755 21.8604 22.4004 21.8681 22.4261 21.8691C22.4517 21.87 22.4772 21.8642 22.4999 21.8522V21.8522ZM19.5033 19.6621C18.677 19.6621 17.8995 19.3391 17.3132 18.7528C17.0247 18.4651 16.796 18.1231 16.6402 17.7466C16.4845 17.3701 16.4048 16.9665 16.4057 16.5591C16.4057 15.731 16.7286 14.9516 17.3132 14.3653C17.8977 13.779 18.6752 13.4561 19.5033 13.4561C20.3314 13.4561 21.1071 13.779 21.6934 14.3653C21.9819 14.653 22.2106 14.995 22.3664 15.3715C22.5221 15.748 22.6018 16.1516 22.6009 16.5591C22.6009 17.3871 22.278 18.1665 21.6934 18.7528C21.1071 19.3391 20.3296 19.6621 19.5033 19.6621ZM26.1387 23.9557H24.6232V22.4403C24.6232 22.3609 24.5583 22.296 24.4789 22.296H23.4686C23.3893 22.296 23.3243 22.3609 23.3243 22.4403V23.9557H21.8089C21.7295 23.9557 21.6646 24.0207 21.6646 24.1001V25.1104C21.6646 25.1897 21.7295 25.2547 21.8089 25.2547H23.3243V26.7701C23.3243 26.8495 23.3893 26.9144 23.4686 26.9144H24.4789C24.5583 26.9144 24.6232 26.8495 24.6232 26.7701V25.2547H26.1387C26.218 25.2547 26.283 25.1897 26.283 25.1104V24.1001C26.283 24.0207 26.218 23.9557 26.1387 23.9557Z" fill="#69747B"/>
</svg>
