<svg width="21" height="21" viewBox="0 0 21 21" fill="none" xmlns="http://www.w3.org/2000/svg">
<path d="M3.44531 18.6164L2.87002 18.446C2.81626 18.6275 2.8513 18.8237 2.96456 18.9754C3.07782 19.127 3.25601 19.2164 3.44531 19.2164V18.6164ZM18.4453 18.6164V19.2164C18.6346 19.2164 18.8128 19.127 18.9261 18.9754C19.0393 18.8237 19.0744 18.6275 19.0206 18.446L18.4453 18.6164ZM14.512 6.11637C14.512 8.08619 12.9151 9.68304 10.9453 9.68304V10.883C13.5779 10.883 15.712 8.74893 15.712 6.11637H14.512ZM10.9453 9.68304C8.9755 9.68304 7.37865 8.08619 7.37865 6.11637H6.17865C6.17865 8.74893 8.31276 10.883 10.9453 10.883V9.68304ZM7.37865 6.11637C7.37865 4.14656 8.9755 2.54971 10.9453 2.54971V1.34971C8.31276 1.34971 6.17865 3.48382 6.17865 6.11637H7.37865ZM10.9453 2.54971C12.9151 2.54971 14.512 4.14656 14.512 6.11637H15.712C15.712 3.48382 13.5779 1.34971 10.9453 1.34971V2.54971ZM4.0206 18.7868C4.95466 15.6337 7.71878 13.383 10.9453 13.383V12.183C7.13315 12.183 3.93907 14.8372 2.87002 18.446L4.0206 18.7868ZM10.9453 13.383C14.1718 13.383 16.936 15.6337 17.87 18.7868L19.0206 18.446C17.9516 14.8372 14.7575 12.183 10.9453 12.183V13.383ZM3.44531 19.2164H18.4453V18.0164H3.44531V19.2164Z" fill="#4D585F"/>
</svg>
