<svg width="41" height="66" viewBox="0 0 41 66" fill="none" xmlns="http://www.w3.org/2000/svg">
<path d="M39.04 20.638C38.0491 20.3077 37.1683 21.2986 36.7279 22.1794C33.2047 27.9047 29.3511 33.63 25.1672 38.9149C20.8732 44.1998 16.4692 49.1544 9.97314 51.7968C9.09232 52.1272 8.76201 52.2373 7.8812 52.2373C6.11957 52.2373 5.23875 51.1362 4.46804 49.7049C2.1559 45.8513 3.36702 40.7867 4.46804 36.3826C7.11048 25.8128 12.8358 16.2339 20.1025 8.19647C22.0843 6.10454 24.1763 4.0126 26.7086 2.69138C28.3602 1.81056 30.6723 1.37015 31.8834 2.80148C32.4339 3.46209 32.6541 4.34291 32.7642 5.22372C33.4248 10.0682 32.1036 15.0228 29.3511 18.9865C29.1309 19.3168 28.9107 19.537 28.9107 19.9774C28.9107 20.7481 29.7915 21.2986 30.5622 21.0784C31.3329 20.8582 31.7733 20.1976 32.2137 19.537C33.9754 16.8945 35.0764 13.9218 35.5168 10.8389C35.8471 8.52678 35.737 6.21464 34.8562 4.1227C33.9754 2.03076 31.9935 0.269133 29.6814 0.0489286C28.14 -0.171275 26.4884 0.379235 25.0571 1.14995C21.2035 3.13178 18.1207 6.32474 15.4782 9.6278C12.7257 13.041 10.1933 16.6743 7.9913 20.5279C5.78926 24.3815 3.91752 28.5653 2.5963 32.7492C1.60538 35.9422 0.944774 39.1351 0.72457 42.4382C0.504366 44.8604 0.614465 47.2827 1.49528 49.4847C2.3761 51.6867 4.24783 53.5585 6.67008 53.9989C8.65191 54.3292 10.7438 53.5585 12.5055 52.6777C23.4056 47.1726 30.7824 36.4927 37.2784 26.1431C36.838 39.4654 36.7279 52.7878 36.9481 66C37.8289 66 38.5996 66 39.4805 66C39.7007 51.6867 39.8108 37.2634 40.031 22.9501C40.031 22.3996 40.031 21.8491 39.8108 21.4087C39.7007 21.0784 39.4805 20.7481 39.04 20.638Z" fill="#0A8270"/>
</svg>
